<svg xmlns="http://www.w3.org/2000/svg" fill="none" viewBox="-0.5 -0.5 24 24" id="Looker-Icon--Streamline-Svg-Logos.svg" height="24" width="24"><desc>Looker Icon Streamline Icon: https://streamlinehq.com</desc><path fill="#34A853" d="M11.452442708333333 0.2395857291666667c-0.7273989583333333 0.0003186458333333333 -1.39538125 0.4016063541666667 -1.7372427083333335 1.0436561458333335 -0.34188541666666666 0.6420521875 -0.30197083333333335 1.4202883333333334 0.10378749999999999 2.023990416666667l0.8410572916666667 -0.8398593750000001c-0.027815625 -0.08378947916666667 -0.04183125 -0.17152489583333333 -0.041519791666666674 -0.25979697916666666 0 -0.4586032291666667 0.37176145833333335 -0.8303742708333334 0.830371875 -0.8303742708333334s0.830371875 0.37177104166666664 0.830371875 0.8303742708333334c0 0.4586032291666667 -0.37176145833333335 0.8303646875 -0.830371875 0.8303646875 -0.08787916666666667 0.000215625 -0.17520729166666665 -0.013823958333333334 -0.25860625 -0.041519791666666674l-0.8398593750000001 0.8398833333333333c0.6993916666666667 0.4743510416666667 1.6235604166666668 0.44921875 2.2961666666666667 -0.06243541666666667 0.6725822916666667 -0.511678125 0.94343125 -1.3956136458333335 0.6729177083333333 -2.19624125 -0.2705135416666667 -0.8006252083333334 -1.0219666666666667 -1.3391654166666667 -1.8670729166666669 -1.3380417708333332Z" stroke-width="1"></path><path fill="#FBBC04" d="M10.669771875 5.975064583333333c0.0012697916666666667 -0.664771875 -0.21401979166666668 -1.3119104166666666 -0.6133093749999999 -1.8434260416666668l-1.09135 1.0901760416666668c0.3413104166666667 0.6242583333333334 0.21847604166666668 1.4001729166666668 -0.29892812500000004 1.8884916666666667l0.5931125 1.4495989583333335c0.878815625 -0.5659677083333333 1.41004375 -1.539538541666667 1.4104750000000001 -2.584840625Z" stroke-width="1"></path><path fill="#EA4335" d="M7.619852083333334 7.539783333333334h-0.028486458333333336c-0.6693958333333334 0.000071875 -1.264784375 -0.4254041666666667 -1.4815833333333335 -1.0587427083333334 -0.21679895833333335 -0.6333145833333335 -0.007019791666666667 -1.3344072916666667 0.5220041666666666 -1.7445739583333333 0.5290239583333334 -0.4101666666666667 1.26025625 -0.43867708333333333 1.8196114583333334 -0.07096458333333334l1.0806885416666667 -1.0806645833333335c-1.0508364583333334 -0.851934375 -2.534791666666667 -0.917628125 -3.656808333333333 -0.161934375 -1.1220166666666667 0.75569375 -1.6189125 2.15553125 -1.2244385416666665 3.4495208333333336 0.3944739583333334 1.2939895833333332 1.5877666666666668 2.1785791666666667 2.9405260416666668 2.179825 0.20874895833333335 0.00011979166666666667 0.41697083333333335 -0.02055625 0.6215989583333333 -0.06166875000000001l-0.5931125 -1.4507968750000002Z" stroke-width="1"></path><path fill="#4285F4" d="M11.494082291666667 8.793594791666667c-0.6830281250000001 -0.0006947916666666667 -1.3624864583333334 0.098828125 -2.016620833333333 0.2953822916666667l0.8647760416666668 2.11269375c0.37643333333333334 -0.09326979166666667 0.7628333333333334 -0.14027604166666668 1.150646875 -0.13996458333333336 2.2471958333333335 0.0006468750000000001 4.181016666666667 1.5885333333333334 4.618927083333333 3.7926520833333335 0.4379104166666667 2.204094791666667 -0.7420375 4.410633333333334 -2.8183145833333336 5.2702583333333335 -2.0762770833333333 0.8596250000000001 -4.470648958333333 0.13296875000000002 -5.71895 -1.7356135416666667 -1.2482770833333334 -1.8685822916666666 -1.002871875 -4.358739583333334 0.5861645833333334 -5.947704166666667 0.33158333333333334 -0.33052916666666665 0.710125 -0.6103385416666667 1.1233822916666667 -0.830371875l-0.8552885416666667 -2.1067760416666665c-3.1881114583333336 1.5613645833333334 -4.6975822916666665 5.266089583333334 -3.5084822916666667 8.610936458333333 1.1891239583333335 3.344846875 4.698396875 5.265370833333334 8.156662500000001 4.463916666666667 3.458265625 -0.8014541666666667 5.764997916666667 -4.069850000000001 5.3615875 -7.59675625 -0.403434375 -3.5269302083333334 -3.3886427083333337 -6.19001875 -6.9385489583333335 -6.1898510416666666l-0.005941666666666666 0.0011979166666666668Z" stroke-width="1"></path></svg>