<svg xmlns="http://www.w3.org/2000/svg" fill="none" viewBox="-0.5 -0.5 24 24" id="Looker--Streamline-Svg-Logos.svg" height="24" width="24"><desc>Looker Streamline Icon: https://streamlinehq.com</desc><path fill="#34A853" d="M2.08239125 8.508730208333333c-0.19323114583333334 0.000071875 -0.3706785416666667 0.10666250000000001 -0.4614973958333334 0.277221875s-0.08021729166666668 0.37729583333333333 0.027573645833333334 0.5376729166666667l0.22342104166666668 -0.22310000000000002c-0.0073839583333333335 -0.02225729166666667 -0.011107083333333333 -0.045568750000000005 -0.011028020833333334 -0.06902395833333334 0 -0.121828125 0.09875864583333334 -0.220584375 0.22058677083333336 -0.220584375 0.12182572916666667 0 0.220584375 0.09875625 0.220584375 0.220584375s-0.09875864583333334 0.220584375 -0.220584375 0.220584375c-0.023345 0.000071875 -0.04654385416666667 -0.003665625 -0.068698125 -0.011020833333333334l-0.2231071875 0.22310000000000002c0.18579447916666667 0.12602083333333333 0.43129791666666667 0.11933645833333334 0.6099767708333335 -0.016579166666666666 0.1786572916666667 -0.135915625 0.2506041666666667 -0.37073125000000007 0.178753125 -0.583409375 -0.07185104166666667 -0.21270208333333335 -0.2714838541666667 -0.3557572916666667 -0.49598062500000006 -0.35544583333333335Z" stroke-width="1"></path><path fill="#FBBC04" d="M1.8744017708333334 10.032336458333333c0.0003426041666666667 -0.17662083333333334 -0.056848333333333334 -0.34852187500000004 -0.16291906250000002 -0.48970833333333336l-0.2899126041666667 0.28958437500000006c0.09066552083333333 0.16583958333333335 0.058036666666666674 0.371953125 -0.07941229166666666 0.5016875l0.15756197916666667 0.3850822916666667c0.23345239583333335 -0.1503625 0.37457416666666665 -0.40896875000000005 0.3746819791666667 -0.6866458333333334Z" stroke-width="1"></path><path fill="#EA4335" d="M1.0642291666666668 10.4480375h-0.007563645833333334c-0.17782354166666667 0 -0.3359916666666667 -0.11301145833333334 -0.39358031250000003 -0.281246875 -0.057588645833333334 -0.16825937500000002 -0.0018615625000000002 -0.3544875 0.13866843750000002 -0.46345 0.14053239583333335 -0.1089625 0.3347865625 -0.11653333333333334 0.4833761458333334 -0.018855208333333335l0.2870783333333333 -0.28706875c-0.279148125 -0.22631041666666668 -0.6733585416666668 -0.2437760416666667 -0.971419375 -0.043029166666666674 -0.2980608333333334 0.200746875 -0.43005615625000004 0.5726041666666667 -0.3252655208333333 0.9163583333333334 0.10478895833333333 0.34373020833333334 0.42178406250000006 0.5787375 0.7811422916666667 0.5790729166666666 0.05544916666666667 0.00002395833333333333 0.11076416666666668 -0.0054625 0.16512562500000003 -0.016387500000000003L1.0642291666666668 10.4480375Z" stroke-width="1"></path><path fill="#4285F4" d="M2.0933665625 10.78110625c-0.18144604166666667 -0.00019166666666666667 -0.36193854166666667 0.026234375 -0.5357107291666666 0.07846354166666668l0.22972687500000002 0.5612239583333333c0.09999729166666667 -0.02477291666666667 0.20264677083333332 -0.03725520833333333 0.30567000000000005 -0.03718333333333334 0.5969650000000001 0.00016770833333333335 1.1106795833333334 0.4220020833333334 1.2269972916666667 1.0074958333333333 0.11634166666666666 0.5855177083333334 -0.19712916666666666 1.1716822916666667 -0.7486739583333333 1.4000291666666669 -0.551554375 0.22837083333333336 -1.1876121875 0.03533854166666667 -1.5192194791666669 -0.4610541666666667 -0.33160489583333336 -0.49636875 -0.266411875 -1.157882291666667 0.15571239583333335 -1.5799802083333332 0.0880828125 -0.08780729166666666 0.1886407291666667 -0.16212604166666666 0.29842260416666666 -0.220584375l-0.2272040625 -0.5596666666666666c-0.8469127083333334 0.4147666666666667 -1.2478978229166668 1.3989270833333334 -0.9320151041666668 2.287469791666667 0.3158810416666667 0.8885427083333334 1.2481069791666666 1.3987354166666666 2.1667796875 1.1858177083333332 0.9186822916666667 -0.21289375 1.5314645833333334 -1.0811197916666668 1.4242989583333332 -2.0180583333333333 -0.107165625 -0.9369145833333334 -0.9001864583333333 -1.6443322916666667 -1.8432080208333335 -1.6443083333333335l-0.0015764583333333334 0.0003354166666666667Z" stroke-width="1"></path><path fill="#5F6368" d="M10.549644791666667 10.698497916666668c0.23541458333333334 0.13991666666666666 0.42799166666666666 0.3416458333333333 0.5568395833333333 0.5832895833333334 0.13414270833333333 0.25070000000000003 0.20275937500000002 0.5312281249999999 0.19947708333333333 0.8155416666666667 0.003282291666666667 0.2843135416666667 -0.065334375 0.5648416666666667 -0.19947708333333333 0.8155416666666667 -0.12875208333333332 0.24161979166666667 -0.321209375 0.4433489583333334 -0.5565041666666667 0.5832895833333334 -0.4975427083333334 0.285990625 -1.1096062500000001 0.285990625 -1.6071489583333334 0l-0.00031145833333333335 -0.0012458333333333334c-0.23543854166666667 -0.1397729166666667 -0.42794375 -0.34155 -0.5565041666666667 -0.5832895833333334 -0.13428645833333333 -0.25065208333333333 -0.20290312500000002 -0.5312281249999999 -0.19947708333333333 -0.8155416666666667 -0.003210416666666667 -0.28390625 0.06540625000000001 -0.5640270833333334 0.19947708333333333 -0.8142958333333333 0.12856041666666668 -0.2417395833333333 0.321065625 -0.44351666666666667 0.5565041666666667 -0.5832895833333334 0.4975427083333334 -0.2859666666666667 1.1095822916666669 -0.2859666666666667 1.6071250000000001 0Zm3.3901041666666667 0c0.23548645833333334 0.13982083333333334 0.4280875 0.3415739583333333 0.556815625 0.5832895833333334 0.13416666666666668 0.25070000000000003 0.20278333333333334 0.5312281249999999 0.19947708333333333 0.8155416666666667 0.00330625 0.2843135416666667 -0.06531041666666668 0.5648416666666667 -0.19947708333333333 0.8155416666666667 -0.12863229166666668 0.24169166666666667 -0.3211375 0.44344479166666667 -0.5565041666666667 0.5832895833333334 -0.4975427083333334 0.285990625 -1.1095822916666669 0.285990625 -1.6071250000000001 0l-0.00031145833333333335 -0.0012458333333333334c-0.23529479166666667 -0.13996458333333336 -0.42775208333333337 -0.34169375 -0.5565041666666667 -0.5832895833333334 -0.13414270833333333 -0.25070000000000003 -0.20275937500000002 -0.5312281249999999 -0.19947708333333333 -0.8155416666666667 -0.0030666666666666668 -0.2838822916666667 0.06552604166666667 -0.5639552083333333 0.19947708333333333 -0.8142958333333333 0.12875208333333332 -0.24159583333333334 0.321209375 -0.443325 0.5565041666666667 -0.5832895833333334 0.4975427083333334 -0.2859666666666667 1.1095822916666669 -0.2859666666666667 1.6071250000000001 0Zm5.235159375 -0.21617604166666668c0.2974666666666667 0 0.55545 0.06650833333333334 0.7739260416666668 0.19947708333333333 0.21735000000000002 0.13155520833333334 0.39234166666666664 0.32274270833333335 0.504203125 0.55085 0.12058229166666666 0.25105937500000003 0.18038229166666667 0.5269875 0.174584375 0.8054552083333333 -0.000215625 0.05179791666666667 -0.004216666666666667 0.10350000000000001 -0.011979166666666667 0.15472291666666668H18.209675c0.011979166666666667 0.23107812500000002 0.06753854166666666 0.4256197916666667 0.16670208333333333 0.5836010416666667 0.09132916666666667 0.15110520833333335 0.22204583333333333 0.27451458333333334 0.378134375 0.35702708333333333 0.14770312500000002 0.07815208333333333 0.312225 0.11904895833333334 0.4793104166666667 0.11912083333333333 0.39663020833333335 0 0.6962052083333333 -0.18256250000000002 0.898725 -0.5476875l0.42856666666666665 0.20829375c-0.12221145833333334 0.23687604166666668 -0.3049895833333333 0.43714375 -0.52971875 0.5804625 -0.22623854166666668 0.14307916666666667 -0.49809375000000006 0.2145947916666667 -0.8155416666666667 0.2145947916666667 -0.27415520833333334 0.004552083333333333 -0.5441895833333333 -0.06725104166666666 -0.779915625 -0.20733541666666666 -0.2293291666666667 -0.137928125 -0.41586875 -0.33680625 -0.5388708333333334 -0.5744729166666668 -0.13155520833333334 -0.25494062500000003 -0.19791979166666665 -0.5384875 -0.1931760416666667 -0.8253166666666667 -0.0021562499999999997 -0.27901875000000004 0.06018333333333333 -0.5547791666666667 0.18215520833333335 -0.8057666666666667 0.11504791666666668 -0.24118854166666667 0.29413645833333335 -0.4461041666666667 0.5177395833333334 -0.5924416666666666 0.229496875 -0.14832604166666666 0.4979020833333333 -0.2251125 0.7711229166666667 -0.220584375Zm-12.908414583333334 -1.2065895833333333v3.936833333333333h1.9200447916666665v0.4956739583333334H5.74496875V9.275732291666666h0.521525Zm9.325445833333333 0v2.8020708333333335l1.56931875 -1.5942114583333333h0.661753125v0.02458125l-1.32350625 1.33644375 1.263634375 1.8403114583333335v0.023311458333333333h-0.6251927083333334l-1.0062020833333334 -1.5031218750000002 -0.5398052083333333 0.5410510416666667v0.9620708333333334h-0.5212135416666667V9.275732291666666h0.5212135416666667Zm7.168429166666667 1.2746552083333333v0.5580854166666667c-0.13735312500000002 -0.06679583333333333 -0.2884583333333333 -0.10048125000000001 -0.44116875 -0.09830104166666667 -0.14902083333333332 -0.0007187500000000001 -0.2946875 0.04437083333333334 -0.41723437500000005 0.12918333333333334 -0.12870416666666668 0.08826250000000001 -0.23318645833333335 0.20745520833333334 -0.30376770833333333 0.346653125 -0.07554062500000001 0.14523541666666667 -0.114496875 0.3067385416666667 -0.11344270833333334 0.4704697916666667v1.7517614583333334h-0.520590625V10.484214583333333h0.4966322916666667v0.5987427083333333h0.02458125c0.06135729166666667 -0.17185312500000002 0.17995104166666667 -0.315028125 0.35578125000000005 -0.429525 0.16289270833333333 -0.10996875 0.35460729166666666 -0.16938541666666668 0.5511375 -0.170775 0.12606875 -0.003210416666666667 0.25141875 0.019861458333333335 0.368071875 0.06773020833333333Zm-13.014286458333334 0.39076041666666667c-0.3811291666666667 -0.0014854166666666666 -0.7322145833333333 0.2066166666666667 -0.9138427083333334 0.5416979166666667 -0.100409375 0.1885041666666667 -0.15055416666666666 0.399696875 -0.14559479166666667 0.6132375000000001 -0.005007291666666667 0.21351666666666666 0.045137500000000004 0.42473333333333335 0.14559479166666667 0.6132135416666666 0.13428645833333333 0.24633958333333333 0.36244166666666666 0.42796770833333336 0.6325958333333334 0.5036281250000001 0.270178125 0.07563645833333334 0.5594510416666667 0.03893229166666667 0.8021489583333333 -0.101846875h-0.000934375c0.16373125 -0.09576145833333334 0.29794583333333335 -0.23476770833333335 0.387909375 -0.40178125000000003 0.100696875 -0.18840833333333334 0.15096145833333333 -0.3996489583333333 0.14590625000000002 -0.6132135416666666 0.005007291666666667 -0.21356458333333334 -0.04525729166666667 -0.42480520833333335 -0.14590625000000002 -0.6132375000000001 -0.08972395833333334 -0.16686979166666668 -0.2235791666666667 -0.30585208333333336 -0.386975 -0.40178125000000003 -0.15793333333333334 -0.09252708333333333 -0.33786041666666666 -0.14085104166666668 -0.5209020833333333 -0.13991666666666666Zm3.3891697916666668 0c-0.18400000000000002 -0.0006708333333333334 -0.3648854166666667 0.04762916666666667 -0.5240645833333333 0.13991666666666666 -0.16461770833333336 0.09525833333333333 -0.299575 0.23433645833333333 -0.3898020833333333 0.40178125000000003 -0.10064895833333333 0.18843229166666667 -0.15091354166666668 0.39967291666666666 -0.14590625000000002 0.6132375000000001 -0.005055208333333333 0.21356458333333334 0.045209375 0.42480520833333335 0.14590625000000002 0.6132135416666666 0.09022708333333333 0.16744479166666668 0.225184375 0.30654687500000005 0.3898020833333333 0.40178125000000003 0.15917916666666668 0.09231145833333333 0.34006458333333334 0.1405875 0.5240645833333333 0.13994062499999999 0.18344895833333336 0.00115 0.36385520833333335 -0.047173958333333335 0.5221479166666666 -0.13994062499999999h-0.0012458333333333334c0.1633 -0.09600104166666668 0.2971552083333333 -0.23495937500000003 0.38695104166666666 -0.40178125000000003 0.10055312500000001 -0.18845625 0.15081770833333333 -0.39967291666666666 0.14590625000000002 -0.6132135416666666 0.004863541666666666 -0.21356458333333334 -0.04537708333333334 -0.42475729166666665 -0.14590625000000002 -0.6132375000000001 -0.08979583333333334 -0.16679791666666668 -0.22365104166666666 -0.30578020833333336 -0.38695104166666666 -0.40178125000000003 -0.15795729166666667 -0.09252708333333333 -0.33786041666666666 -0.14085104166666668 -0.5209020833333333 -0.13991666666666666Zm5.432719791666667 0.22908958333333335c-0.16660625 0.15295 -0.2757364583333334 0.354415625 -0.32741458333333334 0.6044208333333334h1.85135625c-0.009631250000000001 -0.13292083333333332 -0.046071875 -0.2625354166666667 -0.10714166666666666 -0.3809854166666667 -0.068353125 -0.13213020833333333 -0.171278125 -0.24320104166666665 -0.29780208333333336 -0.321425 -0.13486145833333332 -0.0874 -0.30544479166666666 -0.13110000000000002 -0.51175 -0.13110000000000002 -0.22444166666666668 -0.005103125 -0.44212708333333334 0.07700208333333335 -0.6072479166666668 0.22908958333333335Z" stroke-width="1"></path></svg>